<?xml version="1.0" encoding="utf-8"?>
<!-- Generator: Adobe Illustrator 28.3.0, SVG Export Plug-In . SVG Version: 6.00 Build 0)  -->
<svg version="1.1" id="Layer_1" xmlns="http://www.w3.org/2000/svg" xmlns:xlink="http://www.w3.org/1999/xlink" x="0px" y="0px"
	 viewBox="0 0 841.9 595.3" style="enable-background:new 0 0 841.9 595.3;" xml:space="preserve">
<style type="text/css">
	.st0{fill:#3A53A4;}
</style>
<g>
	<path class="st0" d="M379.3,111.5c-4.6-6.9-11.5-12.3-13.4-20.9c-0.6-2.5-2-1.5-3.5-1c-2,0.6-4.2,0.3-4.9-2.1
		c-0.7-2.1,0.6-3.1,2.6-3.9c3.3-1.2,1.3-3.1,0-4.4c-1.8-1.8-3.9-3.3-5.7-5.1c-1.5-1.5-2.4-3.3-1.5-5.4c0.7-1.5,1.9-3,3.6-2.6
		c2.2,0.5,4.8,0.6,5.7,3.6c2.2,7,6.7,13.1,8.5,20.3c1.2,4.8,3.5,9.3,7.2,12.9c1.5,1.4,2.2,3.3,2.2,5.4
		C379.9,109.3,380.3,110.6,379.3,111.5z"/>
	<path class="st0" d="M299.6,391c-0.1-1.2-1.2-2.8,1-3.3c1.8,1.6,3.6,3,4-1c0.2-0.8,0.4-1.7,0.6-2.5c3.7-1.1,5.8-5.4,10.8-4.1
		c2.1,0.6,3.1-2.5,0.4-4.4c-0.1-0.5-0.2-0.9-0.3-1.4c2.3,0.7,3.8,0.1,3.6-2.7c0.5,0,1.1,0,1.6,0c-0.5,0-1-0.1-1.5-0.1
		c-0.4-0.2-0.8-0.4-1.2-0.6c-0.7-2.1,1.6-3.2,2-5.1c-2-0.5-4,1.1-5.6-0.8c3.8-0.9,6.9-2.7,9.3-5.7c0.3,0.9,0.6,1.8,0.9,2.7
		c-0.3,1-0.5,1.9-0.8,2.9c-1.3,0.6-2.8,1.4-1.6,3c0.9,1.2,2.1,0.5,3-0.5c2-0.7,4-0.8,6.1-0.1c3.6,1.1,2.3,2.6,0.3,4.1
		c-0.5,0.2-1,0.4-1.6,0.7c-0.7-3.2-3.4-2.9-4.9-1.8c-2.2,1.6,1.2,2.6,1.3,4.2c-0.4,0.8-0.9,1.6-1.3,2.4c-2.8,1.9-6.2,3.4-5.9,7.7
		c-5.5,0.1-9,3.1-11.3,7.8c-0.3-0.2-0.6-0.1-0.8,0.1c-1.1-0.2-1.9-0.1-1.9,1.3c0.1,0.8,0.2,1.5,0.2,2.3c-1.3,0-3,0.8-3.2-1.4
		C302.6,392.7,301.6,391.5,299.6,391z"/>
	<path class="st0" d="M404.6,222.6c-1.8-0.4-4.4,1.1-5-1.9c-0.5-2.1,0.8-3.4,2.7-4.1c1.2-0.4,2.5-1.2,0.8-2.3
		c-4.3-2.6-1.6-7.1-2.9-10.6c-1.2-3.4,3.2-5.1,5.7-7.4c0.4,7.5,8,7.7,11.7,11.8c-0.7,1.6-4.3,3.1,0,4.7c-0.4,1.2-0.8,2.4-1.1,3.7
		c-2.4-1.2-4.7-1.9-6.1,1.4C405.4,215.7,404.5,216.4,404.6,222.6z"/>
	<path class="st0" d="M362.9,269.6c-2.5,2.7,2.8,5.7-0.8,8.8c-0.7-5.5-4.8-9-8.8-10c-7.7-2-10.1-11-18-12.2c-1.8-0.3-1.2-2.3-1-3.6
		c0.2-1.8,1.9-1.6,2.8-1.2c1.9,0.9,4.6,1.7,5.3,3.4c4,8.2,12.6,10.4,18.9,15.6c0.7,0.6,1.5,0.3,1.9-0.6
		C363.2,269.8,362.9,269.6,362.9,269.6z"/>
	<path class="st0" d="M293.3,379.4c-1.6-0.1-2.9,1.7-4.7,0.9c0.2-1.9-1.4-4.4,1.9-5.4c2.5-0.8,0.1-1.5-0.2-2.2
		c-1.8-3.6,0.4-4.8,3.3-5.1c5.4-0.5,10.9-0.7,16.4-1c0.1,0.9,0.1,1.8,0.2,2.7c-2,0.3-4,0.7-6,1c-2.2-0.2-3.5,0.9-3.8,3.1
		c-4.2,1.6-2.2,3.3,0,4.9c0.3,1.1,0.3,2.2-1.1,2.6c-1.7-0.5-3.3-0.9-5-1.4c-0.3-0.6,0.2-1.6-1-1.7
		C293.3,378.4,293.3,378.9,293.3,379.4z"/>
	<path class="st0" d="M366,413c0.6,0,1.2-0.1,1.8-0.1c-0.7,2.9-0.2,6.2-2.2,8.8c-2-1.5-5.6-1.9-6.4-1c-1.9,2.2,0.4,4.2,2.1,5.9
		c1.5,1.4,0.6,3.4,0.9,5.2c-0.5-0.2-0.9-0.4-1.4-0.5c-4.4,1.9-5.5-4.9-9.7-3.6c0-3,2.1-5.1,3.8-6.8c3.5-3.5,4.8-7.2,3.3-11.9
		c0.9-0.1,1.8-0.3,2.7-0.4c0.1,1.4,0.1,2.8,0.2,4.1c0.2,1.6,0.3,3.6,2.1,3.8C365,416.5,365.4,414.5,366,413z"/>
	<path class="st0" d="M379.3,111.5c1.1-0.9,0.7-2.2,0.8-3.3c2.9,2.4,3,6.1,4.3,9.2c-2.1,0.4-1.5,3.9-4.2,3.7
		c-0.2-0.1-0.4-0.1-0.6-0.2c0.2,0.1,0.3,0.2,0.5,0.3c-0.1,1.4,0.1,2.9-1.4,3.7c-4.6-1.3-9.1-2.8-9.4-8.8c0.1-0.6,0.1-1.2,0.2-1.8
		C374.2,118.1,375.9,111.9,379.3,111.5z"/>
	<path class="st0" d="M524.5,219c-1.2-0.3-1.7-1.2-1.9-2.3c2.8-4.4-2.5-7.1-2.3-11c1.9,0,4.7-2.6,5,2c0.2,3,2.2,4.2,5.3,4.1
		c3.5-0.2,4.2-2.3,4.3-5.1c1.6,0.5,3.2,1,4.7,1.5c0.1,3.7-3.9,5.8-3.7,9.6c-0.9,0-1.7,0-2.6,0C529.8,214.2,527.5,218.8,524.5,219z"
		/>
	<path class="st0" d="M362,477.2c0.8,4.9,1.9,9.8,3.7,14.5c0.5,1.5,0.5,3.7-2.3,3.7c-0.5-6.6-5.8-2.1-8.4-3.6
		c-1-0.5-1.3-1.3-1.2-2.4c4.1-3,4-8.6,7.4-12.1l0.5-0.1L362,477.2z"/>
	<path class="st0" d="M348.9,304.6c5.1,0.8,5.8-3.1,6.7-6.5c0.5-1.9,0.8-3.4,3.2-3.6c1.7-0.1,2.7,0.7,3,2.2c0.4,2-0.3,3.3-2.3,4.2
		c-2.9,1.3-4,3.7-4.5,6.9c-0.4,2.4-2.2,6-5.4,1.5c-0.6-0.8-1.3-1.5-1.9-2.2C347.6,306.1,347.8,305.1,348.9,304.6z"/>
	<path class="st0" d="M240.9,322.8c-1.4,3.1-8.5,6.8-11.3,6c-0.5-0.1-1.2-0.2-0.5-1c2.4-2.5-4.7-5.8,0.3-7.7c3.5-1.3,8-3.1,10.8,1.9
		C240.5,322.3,240.7,322.5,240.9,322.8z"/>
	<path class="st0" d="M369.5,114.3c-0.1,0.6-0.1,1.2-0.2,1.8c-4.7-2.2-9.1-5.3-13.6-7.7c-6.2-3.3-6.4-7.1-4.4-13.2
		C354,105.5,362.4,109.3,369.5,114.3z"/>
	<path class="st0" d="M353.9,392.6c-4.8,0.7-9.8-1.9-14.5,1.2c-0.8,0.5-3.1,0.9-3.3-1.2c-0.2-1.5,1.3-3,2.5-2.9
		c6.7,0.4,7.5-5.4,10.3-9.2c0.8,0.1,1.6,0.2,2.4,0.3c0.4,0.3,0.9,0.7,1.3,1c0.9,0.8,1.7,1.6,2.6,2.4c-0.5,0-0.9,0.1-1.4,0.1
		c-2.9-0.3-5.7,1-5.7,3.8c-0.1,4.1,3.5-0.4,4.8,1.4c0.2,0.3,0.5,0.6,0.8,0.8C353.8,391.1,353.9,391.8,353.9,392.6z"/>
	<path class="st0" d="M362.1,431.7c-0.3-1.7,0.6-3.7-0.9-5.2c-1.8-1.7-4.1-3.7-2.1-5.9c0.8-0.9,4.4-0.6,6.4,1c0,0.8,0.1,1.6,0.1,2.5
		c-0.6,1.3-3.2,3.5,1.2,2.5c1.4-0.3,1.1,1.3,1.4,2.2c0,2.4-0.3,4.7-2.6,6.1c0,1.1-0.3,2.1-1.3,2.8c-0.8-0.1-1.5-0.2-2.3-0.3
		C362.1,435.5,362.1,433.6,362.1,431.7z"/>
	<path class="st0" d="M410.4,217.9c1.4-3.2,3.7-2.6,6.1-1.4c0.5,0.9,1.4,0.9,2.3,0.7c0.4,1.2,1.3,1.6,2.4,1.7c0.2,1.2,2,3.2-0.2,3.2
		c-4.5,0-8.2,2-12,3.9c-1.6,0.7-2.6-0.1-2.3-2.1C408.8,222.5,411,221,410.4,217.9z"/>
	<path class="st0" d="M351.1,427.6c4.2-1.3,5.3,5.5,9.7,3.6c-1.1,2.4,2.7,6.6-2.7,7.4c-3.1-2.5-4.1-6.7-8.4-8.6
		C346.7,428.7,350.3,428.3,351.1,427.6z"/>
	<path class="st0" d="M325.3,362.2c-0.3-0.9-0.6-1.8-0.9-2.7c3.7-4.4,5.4-10.9,12.4-11.8c0.4,1.3,0.8,2.7,1.1,4
		c-0.8,0.9-1.6,1.8-2.4,2.7C330.6,355,328.3,359,325.3,362.2z"/>
	<path class="st0" d="M306.3,437.1c2.7,0.5,7.3-0.5,7.9,4.2c0.3,2.5-3,2.6-4.6,1.9c-2.6-1.1-7.1,0.4-7.6-4.1
		C301.7,437,303.5,436.1,306.3,437.1z"/>
	<path class="st0" d="M251.1,421.7c0.4,4-3,5.1-5.2,7.2c-2.9,2.7-5.3,6-8.5,8.6c2-5.7,7-9.3,9.3-14.7
		C247.3,421.4,249.4,421.4,251.1,421.7L251.1,421.7z"/>
	<path class="st0" d="M370.8,443.4c-1.7,0-3.6,0.2-3.9-2.3c0.1-1.3,0.1-2.6,0.2-3.9c1.2,0.1,3,3.2,3.2,1c0.3-3.5,3.1-5.9,2.7-9.2
		c0.9-0.1,2.3-2,2.3,0.7c-0.6,1.6-2.2,3.2-1.2,5C376.4,438.9,373.6,441.1,370.8,443.4z"/>
	<path class="st0" d="M606.3,157.4c2.5-3.3,9.3-4.8,11.3-3c0.9,0.8,1.4,2,0.9,3.3c-0.6,1.7-1.8,1.9-3.4,1.3
		C612.6,157.9,610,156.9,606.3,157.4z"/>
	<path class="st0" d="M375.3,429.6c0-2.7-1.5-0.7-2.3-0.7c-0.4-0.1-0.9-0.1-1.3-0.2c-0.6-1.9-3.5-3.4-1.1-5.9c5.1-4.5,6,1.5,7.6,3.6
		C380.2,429.1,377.4,429.5,375.3,429.6z"/>
	<path class="st0" d="M560.1,245.4c0.7-0.4,1.5-0.8,2.2-1.2c0.1,0.9,0.1,1.9,0.2,2.8c-4.2,2-8.7,2.4-13.2,3.3c-1.3-1.2-4-0.6-4-3.3
		c4.3-0.5,8.6-1,13-1.6c0.2-0.1,0.5-0.1,0.8-0.1C559.4,246.4,559.7,246.3,560.1,245.4z"/>
	<path class="st0" d="M301.8,240.8c-3.5-3-8.3-0.3-8.6-5.6c-0.1-1.3,0.5-2.9,2.3-2.8C299.9,232.5,300.7,235.7,301.8,240.8z"/>
	<path class="st0" d="M567.3,127.4c-0.4,6.6-0.8,13.1-1.2,19.7c-0.2,0-0.5,0-0.7,0c0-6.6,0-13.1,0-19.7
		C566,127.4,566.6,127.4,567.3,127.4z"/>
	<path class="st0" d="M567.4,167c0.1-0.4,0.4-0.9,0.2-1.1c-1.4-2.2-1.8-5.1,0.9-5.6c1.6-0.3,5.4,1.5,5.6,4.1c0.3,3.1-3,2.2-4.9,2.5
		C568.6,167,568,166.9,567.4,167C567.4,167,567.4,167,567.4,167z"/>
	<path class="st0" d="M334.4,373.2c4.9-3.5,9.7,0,14.6,0.2c-0.1,0.4-0.1,0.8,0.1,1.2c-2.2,1.6-4.2,6.5-6.8,0.2c-0.4-1-2.9-1-3.8-0.1
		C335.9,376.8,335.6,374.1,334.4,373.2z"/>
	<path class="st0" d="M362.1,496.5c-2.5,5.2-6.7,6.6-10.9,3.6c-0.6-1.5,1.1-2.3,1.1-3.6c1.3-0.4,2.7-0.9,4-1.3
		C358,496.9,360.1,496.7,362.1,496.5z"/>
	<path class="st0" d="M580.9,294c5.6,0,8.9,4.9,13.9,6.3C588.5,301.7,585.4,296.4,580.9,294z"/>
	<path class="st0" d="M590.4,167.7c-2.1,4.9-6.3,4.2-10.3,4.1C582.6,167.9,585,164.2,590.4,167.7z"/>
	<path class="st0" d="M330.5,347.9c-0.2,0-0.4,0.1-0.6,0.1c-4.3-1.2-2.6-5.2-3.5-7.9c0-0.1,1.6-1.1,1.8-0.9
		C330.9,341.5,332.1,344.4,330.5,347.9z"/>
	<path class="st0" d="M319.9,384.6c-0.3-4.3,3-5.8,5.9-7.7c0.9,2.5-0.3,4.9-0.6,7.3c-0.8,3.5-3.2,1.9-5.2,1.7
		C319.9,385.5,319.9,385,319.9,384.6z"/>
	<path class="st0" d="M351.3,380.8c-0.8-0.1-1.6-0.2-2.4-0.3c1.5-1.6,4.8-1.3,4.8-4.5c2.3,2.5,4.6,4.9,6.8,7.4c-0.7,0.3-1.3,0.6-2,1
		c-1.2-0.1-2.3-0.1-3.5-0.2c-0.9-0.8-1.7-1.6-2.6-2.4C352.4,381.2,352.1,380.6,351.3,380.8z"/>
	<path class="st0" d="M310.2,369.3c-0.1-0.9-0.1-1.8-0.2-2.7c1-3,3.3-1.5,5.1-1.4c1.6,1.8,3.6,0.2,5.6,0.8c-0.5,1.8-2.7,2.9-2,5.1
		C315.9,370.1,313.2,368.9,310.2,369.3z"/>
	<path class="st0" d="M343.7,335.2c-2.4-2.5-5.6-1.4-8.5-2.1c0,0,0,0-0.1,0c0.1,0.1,0.4,0.2,0.4,0.2c0.5-0.6,1.2-1.1,1.4-1.7
		c0.8-2,2.5-2.7,4.2-2.6c2.6,0.3,1.6,2.7,1.9,4.3C343.2,333.9,342.8,334.7,343.7,335.2L343.7,335.2z"/>
	<path class="st0" d="M335.8,73.8c-3.2-0.1-6.8,1-8.3-2.8c-0.4-1,0.3-2.3,1.1-2.5C332.9,67.5,332.9,72.6,335.8,73.8z"/>
	<path class="st0" d="M358,403.8c2.8-1.2,4.8,3.2,7.7,1c0,0.8,0,1.6-0.1,2.4c-1.5,1-3,1.4-4.8,1.2c-0.9,0.1-1.8,0.3-2.7,0.4
		c-1.6,0.2-3.1,0.1-3.5-1.9C354.2,404.2,357.1,405,358,403.8z"/>
	<path class="st0" d="M312.7,20.5c0.1,2.5-1.3,3.6-3.2,3.6c-1.6,0-3.1-0.7-3.1-2.8c0-2.1,1-3.5,3-3.7
		C311.4,17.3,312.4,18.7,312.7,20.5z"/>
	<path class="st0" d="M281.8,578.8c-2.3,0-3.8-1.2-3.7-3.2c0.1-1.8,1.4-3.3,3.6-3.2c1.9,0.1,3,1.2,3.1,3
		C285.1,577.7,283.6,578.5,281.8,578.8z"/>
	<path class="st0" d="M289.6,389c-2.1,1.7-4.3,3.3-6.4,5c-0.7,0-1.4-0.1-2-0.1c-0.1-1.1,0.2-2.5-0.3-3.4c-0.8-1.4-1.2-2.8,0.3-3.6
		c2-1,0.8,1.9,1.8,1.9c1.1,0,2.1-0.6,3.2-0.9c1,2.1,1.7,0.2,2.4-0.2C289.2,387.8,289.6,388.3,289.6,389z"/>
	<path class="st0" d="M281.1,393.9c0.7,0,1.4,0.1,2,0.1c-0.8,2.8-2.7,5.7,0.5,8.4c-0.8,0.1-2.1,0.5-2.2,0.3c-1.7-3-3.8-4.9-7.7-3.6
		C276.2,397.3,278.7,395.6,281.1,393.9z"/>
	<path class="st0" d="M232.1,443.2c-0.4,2.3,1.9,3.6,1.9,5.4c0,1.9-2.4,2.2-3.7,1.8c-1.4-0.4-4-0.6-3.5-3.1
		C227.3,445,229.2,443.8,232.1,443.2z"/>
	<path class="st0" d="M535.1,203.4c2.1,0.1,4.1,0.2,4.8-2.3c0.9-0.1,1.8-0.1,2.7-0.2c0,0,0.3-0.2,0.3-0.2s0.3,0.2,0.3,0.2
		c-1.2,2.4-2.4,4.9-3.6,7.3c-1.6-0.5-3.2-1-4.7-1.5C534.4,205.5,534.3,204.4,535.1,203.4z"/>
	<path class="st0" d="M326.7,513.3c-1.7-0.4-3.4-1-3.2-3c0.2-2.2,2-2.8,3.9-2.7c1.6,0.1,3.3,0.8,3.1,2.8
		C330.3,512.5,328.4,513,326.7,513.3z"/>
	<path class="st0" d="M355.1,384.2c1.2,0.1,2.3,0.1,3.5,0.2c-0.1,1.3-0.1,2.6-0.2,3.8c-1.1,1.8-3,3.2-1.9,5.9
		c0.6,1.5,0.7,3.2-1.7,3.5c0.7-1.8,1.5-3.6-0.9-4.9c-0.1-0.8-0.2-1.5-0.3-2.3c2.7-2,0.5-4,0.1-6
		C354.2,384.3,354.7,384.2,355.1,384.2z"/>
	<path class="st0" d="M253.5,419.3c0.9-1,2.6-2,2.5-3c-0.1-4.9,2.6-3.7,5.4-2.8C261.1,418.6,256.2,417.4,253.5,419.3
		C253.5,419.2,253.5,419.3,253.5,419.3z"/>
	<path class="st0" d="M305.7,144.3c0,1.7-0.9,2.6-2.6,2.4c-2.3-0.3-2.6-2.1-2.5-4c0.1-1.3,0.3-3.2,2-2.9
		C304.6,140.3,305.7,142.1,305.7,144.3z"/>
	<path class="st0" d="M520.3,205.7c-0.2,3.9,5.1,6.6,2.3,11c-2.9-3.2-4.6-7.1-6-11.1c0.8,0,1.7,0,2.5,0
		C519.5,205.6,519.9,205.6,520.3,205.7z"/>
	<path class="st0" d="M360.9,408.4c1.8,0.2,3.3-0.2,4.8-1.2c0.1,1.9,0.2,3.9,0.3,5.8c-0.6,1.5-1,3.5-2.8,3.3
		c-1.8-0.2-1.9-2.2-2.1-3.8C361,411.2,361,409.8,360.9,408.4z"/>
	<path class="st0" d="M348.9,304.6c-1,0.5-1.3,1.5-1.3,2.5c-0.2,0-0.4-0.1-0.6,0c-3.4,0.3-3.7-2.1-4-4.5c-0.1-1.3,0.6-2.5,1.8-2.5
		C347.6,300.2,347.7,303,348.9,304.6z"/>
	<path class="st0" d="M284.1,224c-3.6-0.3-6.2-0.7-7.2-3.9c-0.4-1.4,0.7-2.3,2.1-2.3C282.6,217.9,282.7,220.9,284.1,224z"/>
	<path class="st0" d="M421.2,218.9c-1.2-0.1-2-0.5-2.4-1.7c1-2.6,2.6-4.5,5.3-5.3c0.8-0.2,1.7,0.2,1.8,1.2
		C425.9,216.4,422.4,216.8,421.2,218.9z"/>
	<path class="st0" d="M410.4,217.9c0.6,3.1-1.6,4.6-3.7,6.1c-0.7-0.4-2.1,0-2.2-1.4C404.5,216.4,405.4,215.7,410.4,217.9z"/>
	<path class="st0" d="M519.1,205.6c-0.8,0-1.7,0-2.5,0c-1.7-1.2-4-2.1-2.9-5c0.5-1.2,1.2-1.7,2.7-1.3
		C520.3,200.3,518.7,203.4,519.1,205.6z"/>
	<path class="st0" d="M507.1,122c-0.4,1.8-1.7,2.7-3.4,2.4c-1.6-0.2-2.9-1.3-2.7-3.2c0.2-2,1.5-2.7,3.3-2.5
		C505.9,119,507.1,120.1,507.1,122z"/>
	<path class="st0" d="M626.1,323.6c3.2,0.7,5.7,1.6,5.7,4.8c0,1.3-1.4,2-2.7,1.7C625.5,329.2,626.6,326.4,626.1,323.6z"/>
	<path class="st0" d="M352.2,280.6c1.3,0.1,2.2,1.1,1.3,1.8c-2.7,2,3.5,4.9-0.7,6c-0.8,0.2-2.9-2.8-3.5-4.6
		C348.7,282,351.2,281.7,352.2,280.6z"/>
	<path class="st0" d="M320.8,154.7c-2.2,1.4,0.6,6-3.9,5.6c-1.3-0.1-2.2-0.9-1.8-2.4C316,155,318,154.3,320.8,154.7z"/>
	<path class="st0" d="M322.5,306.3c-0.1,1.2-0.3,3.1-1.6,2.5c-1.6-0.7-3.1-2.5-3.8-4.2c-0.6-1.5,1.7-2.3,2.6-2.2
		C321.8,302.5,322.3,304.4,322.5,306.3z"/>
	<path class="st0" d="M370.5,422.9c-2.4,2.5,0.5,4,1.1,5.9c-1.1,0-2.2,0-3.3,0c-0.3-0.9-0.1-2.5-1.4-2.2c-4.4,1-1.8-1.2-1.2-2.5
		c4-0.2,0.9-4.6,3.4-5.8C372.2,419.1,368.1,422,370.5,422.9z"/>
	<path class="st0" d="M210.2,383.6c0.5-2.4,2-2.9,3.6-2.8c1.7,0.1,2.3,1.3,2.2,2.8c-0.2,1.9-1.5,1.9-3,1.9
		C211.4,385.6,210.8,384.5,210.2,383.6z"/>
	<path class="st0" d="M551.8,174.2l-0.3,0.1l0,0.4c-1.8,0.7-3.7,1.2-5.6,0.3c0.2-2.3,1.3-3.9,3.6-3.9
		C551.3,171,552.2,172.3,551.8,174.2z"/>
	<path class="st0" d="M356.3,495.2c-1.3,0.4-2.7,0.9-4,1.3c-1.5-1.8-2.1-3.7-1.2-5.9c0.3-0.3,0.3-0.6,0.2-1c0.8-0.1,1.6-0.2,2.3-0.3
		c-0.1,1,0.2,1.9,1.2,2.4C355.4,492.9,355.9,494.1,356.3,495.2z"/>
	<path class="st0" d="M252.5,442.3c-1.8,0-2.7-0.8-2.7-2.5c0.1-1.4,1.1-2.4,2.3-1.9c1.3,0.5,3.6,0.1,3.5,2.4
		C255.6,441.9,253.6,441.7,252.5,442.3z"/>
	<path class="st0" d="M327.1,374.6c0-1.6-3.5-2.6-1.3-4.2c1.5-1.1,4.2-1.4,4.9,1.8C330.3,374.1,329,374.8,327.1,374.6z"/>
	<path class="st0" d="M358.1,466.1c0.1-2,0.1-4.1,2.8-4.5c0.4,0.4,0.8,0.7,1.3,1.1c0.1,1.2,0.1,2.4,0.2,3.6
		c-0.4,0.8-0.8,1.7-1.2,2.5C359.5,468.6,358.4,467.8,358.1,466.1z"/>
	<path class="st0" d="M360.7,439.9c0.7,1.6,2.3,3.2,0,4.8c-2.1,0.4-3.9-0.4-4.8-2.2c-0.5-0.9,0.4-1.7,1.7-1.6
		C358.6,440.5,359.7,440.2,360.7,439.9z"/>
	<path class="st0" d="M546.4,200.3c1.2-0.7,1.7-1.9,1.8-3.2c0.8-1.7,2.4-1.1,3.7-1.2C551.7,199.5,550.5,201.8,546.4,200.3z"/>
	<path class="st0" d="M275.3,389.8c0-0.9,0-1.5-0.1-2.2c-0.1-0.6,0.1-0.9,0.5-0.5c0.4,0.5,0.6,1.3,0.9,2
		C276.5,389.1,276,389.4,275.3,389.8z"/>
	<path class="st0" d="M360.7,439.9c-1.1,0.3-2.1,0.6-3.2,1c0.2-0.7,0.3-1.5,0.5-2.2c5.4-0.8,1.7-5,2.7-7.4c0.5,0.2,0.9,0.3,1.4,0.5
		c0,1.9,0,3.7,0,5.6C362.1,438.4,361.9,439.4,360.7,439.9z"/>
	<path class="st0" d="M424.9,223.6c1.5,1.1,1.6,2.7,0.8,4c-1,1.6-2.2,0.7-3.3-0.3C423.2,226.1,424.1,224.9,424.9,223.6z"/>
	<path class="st0" d="M362.7,471.3c-0.5-0.5-1-1.1-1.6-1.6c0.1-0.3,0.2-0.6,0-0.8c0.4-0.8,0.8-1.7,1.2-2.5
		C365.7,467.7,365.3,469.4,362.7,471.3z"/>
	<path class="st0" d="M564.8,168.8c0.4-1.3,1.4-1.6,2.6-1.7c0,0,0,0,0,0c0,2.4,0.2,4.9-3.3,5C562.4,170.5,565,169.9,564.8,168.8z"/>
	<path class="st0" d="M288.5,387.7c-0.8,0.4-1.4,2.3-2.4,0.2c1.2-1.5,0.6-3.8,2.4-5c0.4,0.9,0.8,1.7,1.2,2.6
		C289.3,386.2,288.9,386.9,288.5,387.7z"/>
	<path class="st0" d="M564.8,168.8c0.2,1.2-2.4,1.7-0.7,3.2c0.2,0.2,0.3,0.5,0.5,0.7c-0.6,0.1-1.1,0.2-1.7,0.3
		C562.9,171.2,562.8,169.5,564.8,168.8z"/>
	<path class="st0" d="M417.9,211.9c0-0.9,0-1.8,0-2.7c0.6,0.4,1.5,0.6,1.7,1.1C419.8,211.4,418.7,211.6,417.9,211.9z"/>
	<path class="st0" d="M251.1,421.8c0.8-0.8,1.7-1.7,2.5-2.5c0,0-0.1-0.1-0.1-0.1C252.7,420,251.9,420.9,251.1,421.8
		C251.1,421.7,251.1,421.8,251.1,421.8z"/>
	<path class="st0" d="M343.6,335.2c0.8,0,1.5-0.1,2.3-0.1c0,0.2,0,0.4-0.1,0.6c-0.7-0.2-1.4-0.4-2.1-0.6
		C343.7,335.2,343.6,335.2,343.6,335.2z"/>
	<path class="st0" d="M279.9,343.2c0.2-0.5,0.4-1,1-0.6c0.1,0.1-0.2,0.8-0.3,1.3C280.3,343.6,280.1,343.4,279.9,343.2z"/>
	<path class="st0" d="M353,457.5c-0.6,0.1-1.3,0.2-1.9,0.3C351.5,456,352.2,456.6,353,457.5z"/>
	<path class="st0" d="M349.1,374.6c-0.2-0.4-0.3-0.8-0.1-1.2c0.4-0.1,0.8-0.1,1.1,0.2C349.7,373.9,349.4,374.3,349.1,374.6z"/>
	<path class="st0" d="M351.3,489.6c0.2,0.4,0.1,0.7-0.2,1c-0.5-0.1-1-0.3-0.7-1C350.5,489.5,351,489.6,351.3,489.6z"/>
	<path class="st0" d="M544.4,280.5l0.2,0.1C544.6,280.6,544.4,280.6,544.4,280.5C544.4,280.6,544.4,280.5,544.4,280.5z"/>
	<path class="st0" d="M325.3,362.2c3-3.2,5.4-7.2,10.3-7.8c0,0.4,0.1,0.8,0.5,0.9c0.3,1,0.2,2.3,1.7,2.4c0.3,1.9-2.3,0.8-2.4,2.3
		c-3.8,0.5-6.6,2.9-9.6,4.9c-0.5,0-0.9,0-1.4,0.1C324.8,364.1,325,363.1,325.3,362.2z"/>
	<path class="st0" d="M342.8,351.4c2.5-1.7,5.4-0.6,8.1-0.8c3-0.2,4.8,2.5,4.5,4.4c-0.4,2.3-3.2,2-5.3,1
		C349.1,352.1,343.3,356,342.8,351.4z"/>
	<path class="st0" d="M325.9,364.9c3-2,5.8-4.4,9.6-4.9c0.1,3-3.1,4.6-3.5,7.4c-2-0.7-4.1-0.6-6.1,0.1
		C325.9,366.7,325.9,365.8,325.9,364.9z"/>
	<path class="st0" d="M342.8,351.4c0.5,4.5,6.3,0.7,7.3,4.6c-2.3,0-4.6,0-6.9,0.1c-2.2-1.4-4.7-0.4-7-0.8c-0.4-0.2-0.6-0.5-0.5-0.9
		c0.8-0.9,1.6-1.8,2.4-2.7C339.6,351.6,341.2,351.5,342.8,351.4z"/>
	<path class="st0" d="M336.1,355.3c2.3,0.4,4.8-0.7,7,0.8c-1.1,2.6-3.5,1.2-5.3,1.7C336.3,357.6,336.4,356.3,336.1,355.3z"/>
	<path class="st0" d="M338,369c2-0.6,2.9-1.1,3.8-1.1c0.6,0,0.7,0.9,0.2,1.3C341.1,369.9,340.1,369.9,338,369z"/>
	<path class="st0" d="M356.3,495.2c-0.5-1.2-1-2.4-1.4-3.6c2.7,1.5,8-3,8.4,3.6c-0.4,0.4-0.8,0.8-1.2,1.2
		C360.1,496.7,358,496.9,356.3,495.2z"/>
	<path class="st0" d="M367.1,437.2c-0.1,1.3-0.1,2.6-0.2,3.9c-4,1.1-1.6-2.3-2.4-3.5c1-0.7,1.3-1.6,1.3-2.8
		C366.9,435.2,367,436.2,367.1,437.2z"/>
	<path class="st0" d="M362.2,462.7c-0.4-0.4-0.8-0.7-1.3-1.1c-0.1-0.3-0.2-0.7-0.2-1.1c0.2-0.2,0.3-0.4,0.5-0.6
		C362.5,460.5,363.9,461,362.2,462.7z"/>
	<path class="st0" d="M288.5,387.7c0.4-0.7,0.8-1.5,1.2-2.2c1.7,0.7,4.8-3.4,5.2,1.3c0.5,5.4-2.6,3.6-5.3,2.3
		C289.6,388.3,289.2,387.8,288.5,387.7z"/>
	<path class="st0" d="M299.3,380.9c1.4-0.5,1.3-1.5,1.1-2.6c3.9,0.1,3.7,3.6,4.8,5.9c-0.2,0.8-0.4,1.7-0.6,2.5
		c-0.9-0.4-1.9-0.8-2.8-1.2C301.1,383.9,299.2,382.9,299.3,380.9z"/>
	<path class="st0" d="M301.7,385.5c0.9,0.4,1.9,0.8,2.8,1.2c-0.4,4.1-2.1,2.6-3.9,1C300.9,387,301.3,386.3,301.7,385.5z"/>
	<path class="st0" d="M323.6,410c0.2,0.3,0.6,0.5,0.6,0.8c0,0.7-0.5,0.9-1.1,0.7c-0.2-0.1-0.4-0.7-0.3-0.9
		C322.8,410.3,323.3,410.2,323.6,410z"/>
	<path class="st0" d="M325.9,364.9c0,0.9,0,1.7,0,2.6c-0.9,1-2.1,1.7-3,0.5c-1.2-1.6,0.3-2.4,1.6-3C325,365,325.4,365,325.9,364.9z"
		/>
	<path class="st0" d="M319.7,371.7l0.1-0.1c0.5,0,1,0.1,1.5,0.1C320.8,371.7,320.3,371.7,319.7,371.7z"/>
	<path class="st0" d="M304.2,370.3c-0.4,2.2-1.7,3.1-3.8,3.1C300.7,371.1,302,370.1,304.2,370.3z"/>
	<path class="st0" d="M380.2,121.2c-0.2-0.1-0.3-0.2-0.5-0.3C379.9,121,380.1,121,380.2,121.2C380.3,121.1,380.2,121.2,380.2,121.2z
		"/>
	<path class="st0" d="M353.8,384.3c0.4,2,2.6,4-0.1,6c-0.3-0.3-0.6-0.5-0.8-0.8c-1.3-1.7-4.9,2.8-4.8-1.4
		C348.1,385.3,350.8,384,353.8,384.3z"/>
	<path class="st0" d="M351.3,380.8c0.8-0.2,1.1,0.3,1.3,1C352.1,381.5,351.7,381.2,351.3,380.8z"/>
	<path class="st0" d="M367.1,437.2c-0.1-1-0.2-1.9-1.3-2.3c2.3-1.4,2.6-3.7,2.6-6.1c1.1,0,2.2,0,3.3,0c0.4,0.1,0.9,0.1,1.3,0.2
		c0.4,3.4-2.5,5.8-2.7,9.2C370.1,440.3,368.3,437.3,367.1,437.2z"/>
	<path class="st0" d="M560.1,245.4c-0.4,0.9-0.7,1-1,0C559.4,245.4,559.7,245.4,560.1,245.4z"/>
	<path class="st0" d="M536,223.7c-0.2,0.3-0.4,0.6-0.6,0.9C534.6,223.6,535.7,224,536,223.7C536,223.7,536,223.7,536,223.7z"/>
	<path class="st0" d="M307.2,376.5c0.3,0.2,0.7,0.3,0.9,0.6c0.1,0.2-0.2,0.6-0.2,0.9c-0.3-0.2-0.7-0.2-0.9-0.5
		C306.9,377.2,307.1,376.8,307.2,376.5z"/>
</g>
</svg>
